HIERARCHY
ROOT Hips
{
	OFFSET 0.000000 1.471914 24.280096
	CHANNELS 6 Xposition Yposition Zposition Xrotation Yrotation Zrotation
	JOINT Spine
	{
		OFFSET 0.000000 0.900110 1.860670
		CHANNELS 6 Xposition Yposition Zposition Xrotation Yrotation Zrotation
		JOINT Spine1
		{
			OFFSET 0.000000 0.400320 2.270309
			CHANNELS 6 Xposition Yposition Zposition Xrotation Yrotation Zrotation
			JOINT Spine2
			{
				OFFSET 0.000000 0.200920 2.296560
				CHANNELS 6 Xposition Yposition Zposition Xrotation Yrotation Zrotation
				JOINT Spine3
				{
					OFFSET 0.000000 0.000000 2.305330
					CHANNELS 6 Xposition Yposition Zposition Xrotation Yrotation Zrotation
					JOINT Neck
					{
						OFFSET 0.000000 -0.864490 6.051487
						CHANNELS 6 Xposition Yposition Zposition Xrotation Yrotation Zrotation
						JOINT Head
						{
							OFFSET 0.000000 -0.550429 3.121674
							CHANNELS 6 Xposition Yposition Zposition Xrotation Yrotation Zrotation
							End Site
							{
								OFFSET 0.000000 0.000000 3.731750
							}
						}
					}
					JOINT RightShoulder
					{
						OFFSET -0.788280 -1.313800 4.256718
						CHANNELS 6 Xposition Yposition Zposition Xrotation Yrotation Zrotation
						JOINT RightArm
						{
							OFFSET -3.915130 0.000000 0.000000
							CHANNELS 6 Xposition Yposition Zposition Xrotation Yrotation Zrotation
							JOINT RightForeArm
							{
								OFFSET -6.914910 0.000000 0.000000
								CHANNELS 6 Xposition Yposition Zposition Xrotation Yrotation Zrotation
								JOINT RightHand
								{
									OFFSET -6.096219 0.000000 0.000000
									CHANNELS 6 Xposition Yposition Zposition Xrotation Yrotation Zrotation
									JOINT RightHandEnd
									{
										OFFSET -1.749950 0.000000 0.000000
										CHANNELS 6 Xposition Yposition Zposition Xrotation Yrotation Zrotation
										End Site
										{
											OFFSET -1.749950 0.000000 0.000000
										}
									}
									JOINT RightHandThumb1
									{
										OFFSET -0.699980 -1.166630 -0.466648
										CHANNELS 6 Xposition Yposition Zposition Xrotation Yrotation Zrotation
										End Site
										{
											OFFSET -1.690319 -0.452920 0.000000
										}
									}
								}
							}
						}
					}
					JOINT LeftShoulder
					{
						OFFSET 0.788280 -1.313800 4.256718
						CHANNELS 6 Xposition Yposition Zposition Xrotation Yrotation Zrotation
						JOINT LeftArm
						{
							OFFSET 3.915130 0.000000 0.000000
							CHANNELS 6 Xposition Yposition Zposition Xrotation Yrotation Zrotation
							JOINT LeftForeArm
							{
								OFFSET 6.914910 0.000000 0.000000
								CHANNELS 6 Xposition Yposition Zposition Xrotation Yrotation Zrotation
								JOINT LeftHand
								{
									OFFSET 6.096219 0.000000 0.000000
									CHANNELS 6 Xposition Yposition Zposition Xrotation Yrotation Zrotation
									JOINT LeftHandEnd
									{
										OFFSET 1.749950 0.000000 0.000000
										CHANNELS 6 Xposition Yposition Zposition Xrotation Yrotation Zrotation
										End Site
										{
											OFFSET 1.749950 0.000000 0.000000
										}
									}
									JOINT LeftHandThumb1
									{
										OFFSET 0.699980 -1.166630 -0.466648
										CHANNELS 6 Xposition Yposition Zposition Xrotation Yrotation Zrotation
										End Site
										{
											OFFSET 1.690319 -0.452920 0.000000
										}
									}
								}
							}
						}
					}
				}
			}
		}
	}
	JOINT RightUpLeg
	{
		OFFSET -2.338570 -0.252550 -0.551512
		CHANNELS 6 Xposition Yposition Zposition Xrotation Yrotation Zrotation
		JOINT RightLeg
		{
			OFFSET 0.000000 0.000000 -10.744959
			CHANNELS 6 Xposition Yposition Zposition Xrotation Yrotation Zrotation
			JOINT RightFoot
			{
				OFFSET 0.000000 -0.000001 -10.930849
				CHANNELS 6 Xposition Yposition Zposition Xrotation Yrotation Zrotation
				JOINT RightToeBase
				{
					OFFSET 0.000000 -4.087269 -1.487650
					CHANNELS 6 Xposition Yposition Zposition Xrotation Yrotation Zrotation
					End Site
					{
						OFFSET 0.000000 -1.891870 0.000000
					}
				}
			}
		}
	}
	JOINT LeftUpLeg
	{
		OFFSET 2.338570 -0.252550 -0.551512
		CHANNELS 6 Xposition Yposition Zposition Xrotation Yrotation Zrotation
		JOINT LeftLeg
		{
			OFFSET 0.000000 0.000000 -10.744959
			CHANNELS 6 Xposition Yposition Zposition Xrotation Yrotation Zrotation
			JOINT LeftFoot
			{
				OFFSET 0.000000 -0.000001 -10.930849
				CHANNELS 6 Xposition Yposition Zposition Xrotation Yrotation Zrotation
				JOINT LeftToeBase
				{
					OFFSET 0.000000 -4.087269 -1.487650
					CHANNELS 6 Xposition Yposition Zposition Xrotation Yrotation Zrotation
					End Site
					{
						OFFSET 0.000000 -1.891870 0.000000
					}
				}
			}
		}
	}
}
MOTION
Frames: 6
Frame Time: 0.041667
-0.000082 26.540344 40.216301 -10.637957 14.154181 -24.903114 -0.000020 0.900103 1.860705 27.350912 -10.414574 0.341820 0.000005 0.400273 2.270317 -0.000003 -0.000001 0.000007 0.000020 0.200869 2.296535 0.000001 -0.000000 0.000001 0.000025 0.000006 2.305321 -0.000075 0.000012 -4.452661 -0.000012 -0.864479 6.051472 9.892434 0.947003 -177.440883 0.000020 -0.550445 3.121692 -0.000003 0.000001 -0.000006 -0.788275 -1.313750 4.256786 -131.825793 54.658630 -47.269086 -3.915088 -0.000006 -0.000031 0.000000 -0.000003 0.000001 -6.914907 -0.000002 -0.000005 0.000001 0.000002 -30.182234 -6.096189 -0.000005 0.000015 -0.000047 0.000015 -0.000105 -1.749917 -0.000023 0.000027 -0.000006 0.000001 -0.000000 -0.699968 -1.166629 -0.466660 -0.000008 -0.000002 -0.000001 0.788262 -1.313778 4.256740 168.068293 -66.662817 9.645732 3.915190 0.000009 -0.000030 0.000003 0.000000 0.000002 6.914925 -0.000035 -0.000008 0.000001 -0.000007 137.961584 6.096231 0.000071 -0.000011 0.000036 -0.000031 0.000039 1.749970 -0.000003 0.000028 -0.000001 -0.000006 -0.000003 0.699962 -1.166617 -0.466629 0.000012 -0.000012 -0.000026 -2.338566 -0.252536 -0.551509 21.296950 -7.899240 0.270222 0.000019 -0.000021 -10.744975 7.930440 4.128252 -0.992769 -0.000019 0.000072 -10.930843 -0.000012 -0.000002 0.000003 0.000002 -4.087274 -1.487643 0.000004 0.000001 -0.000007 2.338574 -0.252536 -0.551470 24.451703 -6.902598 0.302856 -0.000005 -0.000045 -10.744905 8.477259 0.564010 -0.923517 -0.000018 0.000007 -10.930865 0.000019 -0.000002 0.000000 -0.000014 -4.087239 -1.487652 -0.000002 -0.000001 -0.000002 
-0.000086 26.540342 40.216297 -10.710837 13.983110 -24.817098 -0.000021 0.900100 1.860706 26.930162 -10.421592 0.291068 0.000007 0.400276 2.270319 -0.000004 -0.000001 0.000009 0.000019 0.200865 2.296535 0.000001 -0.000001 -0.000000 0.000026 0.000008 2.305332 -0.000075 0.000006 -4.240295 -0.000012 -0.864476 6.051474 10.743554 2.392888 -177.416308 0.000019 -0.550445 3.121700 -0.000006 0.000001 -0.000006 -0.788275 -1.313746 4.256783 -131.930828 54.605891 -46.696238 -3.915100 -0.000009 -0.000031 0.000000 -0.000003 -0.000000 -6.914907 0.000000 -0.000000 0.000001 0.000001 -30.432246 -6.096193 -0.000007 0.000016 -0.000044 0.000012 -0.000102 -1.749917 -0.000022 0.000027 -0.000004 -0.000001 0.000003 -0.699967 -1.166625 -0.466659 -0.000007 -0.000004 -0.000003 0.788260 -1.313775 4.256739 151.773087 -65.202236 -3.122580 3.915190 0.000008 -0.000034 0.000003 -0.000003 0.000001 6.914928 -0.000037 -0.000005 0.000002 -0.000005 138.630232 6.096224 0.000071 -0.000014 0.000031 -0.000034 0.000040 1.749973 -0.000004 0.000028 -0.000001 -0.000009 -0.000003 0.699965 -1.166617 -0.466629 0.000015 -0.000011 -0.000023 -2.338567 -0.252536 -0.551512 21.328579 -7.848890 0.233829 0.000017 -0.000022 -10.744974 8.097700 4.180882 -1.019607 -0.000019 0.000070 -10.930838 -0.000014 -0.000002 0.000000 -0.000000 -4.087269 -1.487642 -0.000000 0.000002 -0.000003 2.338573 -0.252540 -0.551479 24.052050 -7.263542 0.257590 -0.000005 -0.000049 -10.744903 8.615747 0.983013 -1.005865 -0.000017 0.000007 -10.930869 0.000019 -0.000002 0.000000 -0.000014 -4.087238 -1.487655 -0.000001 0.000001 -0.000001 
-0.000088 26.540329 40.216270 -10.683763 13.746093 -24.634156 -0.000021 0.900097 1.860708 26.591825 -10.519955 0.247176 0.000005 0.400277 2.270310 -0.000005 -0.000001 0.000008 0.000018 0.200866 2.296532 0.000001 -0.000001 -0.000001 0.000027 0.000005 2.305336 -0.000074 0.000007 -4.094306 -0.000012 -0.864477 6.051468 11.434340 3.697558 -176.919371 0.000018 -0.550445 3.121696 -0.000002 0.000001 -0.000005 -0.788274 -1.313748 4.256777 -132.370405 54.584239 -46.070333 -3.915088 -0.000007 -0.000027 0.000000 -0.000002 0.000001 -6.914910 0.000005 -0.000001 -0.000000 0.000002 -30.371157 -6.096192 -0.000000 0.000016 -0.000045 0.000010 -0.000103 -1.749913 -0.000018 0.000030 -0.000002 0.000001 0.000001 -0.699959 -1.166623 -0.466655 -0.000007 -0.000003 -0.000003 0.788261 -1.313776 4.256730 138.810413 -63.196872 -12.736337 3.915186 0.000007 -0.000030 -0.000001 0.000001 0.000002 6.914912 -0.000032 -0.000004 -0.000002 -0.000006 139.053103 6.096227 0.000069 -0.000010 0.000036 -0.000036 0.000035 1.749965 -0.000002 0.000032 -0.000003 -0.000001 -0.000003 0.699958 -1.166613 -0.466625 0.000014 -0.000005 -0.000024 -2.338568 -0.252540 -0.551513 21.339273 -7.809342 0.200957 0.000018 -0.000022 -10.744977 7.853165 4.368893 -0.994882 -0.000019 0.000074 -10.930842 -0.000010 -0.000003 0.000001 0.000001 -4.087275 -1.487641 -0.000002 0.000001 -0.000005 2.338571 -0.252540 -0.551476 23.524230 -7.381745 0.216692 -0.000002 -0.000047 -10.744902 8.509159 1.027062 -1.022943 -0.000015 0.000000 -10.930865 0.000017 -0.000001 0.000001 -0.000014 -4.087240 -1.487648 0.000000 -0.000000 -0.000002 
-0.000093 26.540325 40.216270 -10.618955 13.666792 -24.378436 -0.000019 0.900096 1.860708 26.172185 -10.740591 0.284069 0.000004 0.400280 2.270319 -0.000005 -0.000001 0.000011 0.000019 0.200870 2.296537 0.000001 -0.000001 -0.000001 0.000025 0.000003 2.305324 -0.000075 0.000007 -4.209944 -0.000011 -0.864478 6.051479 11.964012 4.445924 -176.059122 0.000019 -0.550449 3.121704 -0.000003 0.000002 -0.000007 -0.788274 -1.313749 4.256782 -132.471437 54.614538 -45.703053 -3.915098 -0.000013 -0.000030 0.000000 0.000000 -0.000002 -6.914910 0.000001 -0.000000 -0.000000 0.000001 -30.236021 -6.096192 -0.000004 0.000013 -0.000046 0.000014 -0.000102 -1.749912 -0.000019 0.000031 -0.000004 0.000003 0.000002 -0.699961 -1.166624 -0.466652 -0.000007 -0.000000 -0.000001 0.788263 -1.313776 4.256738 133.463249 -61.469612 -16.154533 3.915185 0.000012 -0.000034 -0.000002 -0.000001 0.000003 6.914918 -0.000034 -0.000009 0.000001 -0.000006 138.751851 6.096229 0.000069 -0.000012 0.000037 -0.000036 0.000038 1.749970 -0.000006 0.000031 -0.000002 -0.000008 0.000002 0.699962 -1.166615 -0.466629 0.000014 -0.000009 -0.000015 -2.338563 -0.252540 -0.551513 21.370118 -8.045890 0.234422 0.000016 -0.000020 -10.744972 7.849587 4.622109 -1.015051 -0.000020 0.000071 -10.930840 -0.000012 -0.000003 0.000002 -0.000002 -4.087266 -1.487640 -0.000003 0.000001 -0.000005 2.338576 -0.252542 -0.551474 23.170532 -7.690794 0.249518 -0.000004 -0.000047 -10.744899 8.252701 0.887643 -1.025195 -0.000016 0.000005 -10.930865 0.000019 -0.000002 -0.000001 -0.000011 -4.087240 -1.487651 0.000001 -0.000001 -0.000004 
-0.000087 26.540319 40.216255 -10.585593 13.526520 -24.147748 -0.000022 0.900103 1.860706 25.806743 -10.887436 0.303635 0.000006 0.400273 2.270315 -0.000006 -0.000001 0.000010 0.000018 0.200868 2.296532 0.000001 -0.000000 0.000000 0.000026 0.000004 2.305328 -0.000076 0.000003 -4.210666 -0.000011 -0.864476 6.051477 12.185939 4.927252 -174.864659 0.000018 -0.550447 3.121704 -0.000005 0.000002 -0.000006 -0.788272 -1.313747 4.256783 -133.498356 55.300131 -44.599906 -3.915091 -0.000015 -0.000034 -0.000001 0.000000 -0.000002 -6.914908 0.000002 -0.000000 0.000001 0.000001 -30.125024 -6.096198 -0.000001 0.000015 -0.000046 0.000011 -0.000103 -1.749916 -0.000017 0.000027 -0.000001 0.000002 0.000001 -0.699966 -1.166621 -0.466656 -0.000005 -0.000003 -0.000001 0.788262 -1.313775 4.256739 127.344670 -59.999715 -20.261562 3.915195 0.000009 -0.000034 0.000001 -0.000001 0.000000 6.914923 -0.000031 -0.000008 -0.000000 -0.000007 138.098775 6.096233 0.000074 -0.000012 0.000034 -0.000036 0.000041 1.749966 0.000002 0.000031 -0.000001 -0.000002 0.000004 0.699960 -1.166608 -0.466634 0.000014 -0.000007 -0.000014 -2.338565 -0.252537 -0.551512 21.336712 -8.156731 0.253262 0.000016 -0.000022 -10.744977 7.865314 4.754673 -1.025445 -0.000019 0.000072 -10.930843 -0.000014 -0.000005 0.000001 -0.000001 -4.087280 -1.487641 0.000003 0.000002 -0.000001 2.338573 -0.252535 -0.551479 22.903583 -7.981803 0.267591 -0.000004 -0.000046 -10.744899 8.063996 1.126905 -1.035722 -0.000018 0.000003 -10.930867 0.000019 0.000000 -0.000000 -0.000014 -4.087240 -1.487653 -0.000001 0.000001 -0.000004 
-0.000086 26.540316 40.216255 -10.578673 13.506754 -24.322686 -0.000021 0.900095 1.860707 25.681310 -10.942497 0.270987 0.000005 0.400274 2.270314 -0.000005 -0.000002 0.000006 0.000019 0.200863 2.296530 0.000001 -0.000000 0.000000 0.000025 0.000007 2.305332 -0.000076 0.000006 -4.066278 -0.000010 -0.864485 6.051471 12.636092 5.221385 -174.536427 0.000020 -0.550449 3.121700 -0.000003 0.000001 -0.000005 -0.788274 -1.313755 4.256783 -132.960356 54.723684 -44.870696 -3.915097 -0.000010 -0.000027 -0.000001 -0.000002 -0.000003 -6.914907 -0.000002 0.000003 0.000000 0.000002 -30.362715 -6.096196 -0.000001 0.000017 -0.000043 0.000013 -0.000106 -1.749916 -0.000020 0.000030 -0.000003 0.000000 0.000001 -0.699961 -1.166625 -0.466652 -0.000003 -0.000003 -0.000001 0.788265 -1.313781 4.256742 124.227207 -59.033489 -22.048937 3.915186 0.000009 -0.000034 -0.000001 -0.000002 0.000009 6.914921 -0.000033 -0.000004 -0.000001 -0.000006 137.360951 6.096230 0.000069 -0.000009 0.000034 -0.000038 0.000037 1.749968 -0.000003 0.000032 0.000001 -0.000006 0.000001 0.699962 -1.166614 -0.466629 0.000015 -0.000009 -0.000022 -2.338565 -0.252541 -0.551508 21.473602 -8.124423 0.228499 0.000017 -0.000025 -10.744979 7.703793 4.810096 -1.009106 -0.000019 0.000073 -10.930842 -0.000012 -0.000003 0.000005 0.000001 -4.087268 -1.487641 0.000001 -0.000000 -0.000001 2.338574 -0.252540 -0.551471 22.778001 -7.993919 0.238474 -0.000005 -0.000046 -10.744898 8.197670 0.966631 -1.064251 -0.000017 0.000008 -10.930867 0.000022 -0.000002 0.000001 -0.000013 -4.087240 -1.487653 0.000002 -0.000001 -0.000006 
